<svg aria-hidden="true" style="position: absolute; width: 0; height: 0; overflow: hidden;" version="1.1" xmlns="http://www.w3.org/2000/svg" xmlns:xlink="http://www.w3.org/1999/xlink">
<defs>
<symbol id="icon-thumb_up-24px-1" viewBox="0 0 32 32">
<path fill="#ff6b08" style="fill: var(--color1, #ff6b08)" d="M12 28h12c1.107 0 2.053-0.667 2.453-1.627l4.027-9.4c0.12-0.307 0.187-0.627 0.187-0.973v-2.667c0-1.467-1.2-2.667-2.667-2.667h-8.413l1.267-6.093 0.040-0.427c0-0.547-0.227-1.053-0.587-1.413l-1.413-1.4-8.787 8.787c-0.48 0.48-0.773 1.147-0.773 1.88v13.333c0 1.467 1.2 2.667 2.667 2.667zM12 12l5.787-5.787-1.787 7.12h12v2.667l-4 9.333h-12v-13.333zM1.333 12h5.333v16h-5.333v-16z"></path>
</symbol>

<symbol id="icon-Vector-30" viewBox="0 0 35 32">
<path fill="#a6abb9" style="fill: var(--color2, #a6abb9)" d="M12.696 31.478h14.087c1.299 0 2.41-0.783 2.88-1.91l4.727-11.035c0.141-0.36 0.219-0.736 0.219-1.143v-3.13c0-1.722-1.409-3.13-3.13-3.13h-9.877l1.487-7.153 0.047-0.501c0-0.642-0.266-1.237-0.689-1.659l-1.659-1.643-10.315 10.315c-0.563 0.563-0.908 1.346-0.908 2.207v15.652c0 1.722 1.409 3.13 3.13 3.13zM12.696 12.696l6.793-6.793-2.097 8.358h14.087v3.13l-4.696 10.957h-14.087v-15.652zM0.174 12.696h6.261v18.783h-6.261v-18.783z"></path>
</symbol>

<symbol id="icon-delete" viewBox="0 0 25 32">
<path fill="#a6abb9" style="fill: var(--color2, #a6abb9)" d="M19.556 10.667v17.778h-14.222v-17.778h14.222zM16.889 0h-8.889l-1.778 1.778h-6.222v3.556h24.889v-3.556h-6.222l-1.778-1.778zM23.111 7.111h-21.333v21.333c0 1.956 1.6 3.556 3.556 3.556h14.222c1.956 0 3.556-1.6 3.556-3.556v-21.333z"></path>
</symbol>

<symbol id="icon-Vector-29" viewBox="0 0 32 32">
<path fill="#a6abb9" style="fill: var(--color2, #a6abb9)" d="M28.25 2.5h-1.5v-2.5h-2.5v2.5h-16.5v-2.5h-2.5v2.5h-1.5c-2.068 0-3.75 1.682-3.75 3.75v22c0 2.068 1.682 3.75 3.75 3.75h24.5c2.068 0 3.75-1.682 3.75-3.75v-22c0-2.068-1.682-3.75-3.75-3.75zM29.5 28.25c0 0.689-0.561 1.25-1.25 1.25h-24.5c-0.689 0-1.25-0.561-1.25-1.25v-16.5h27v16.5zM29.5 9.25h-27v-3c0-0.689 0.561-1.25 1.25-1.25h1.5v2.5h2.5v-2.5h16.5v2.5h2.5v-2.5h1.5c0.689 0 1.25 0.561 1.25 1.25v3z"></path>
</symbol>

<symbol id="icon-Ellipse-3" viewBox="0 0 32 32">
<path fill="#ff6b08" style="fill: var(--color1, #ff6b08)" d="M32 16c0 8.837-7.163 16-16 16s-16-7.163-16-16c0-8.837 7.163-16 16-16s16 7.163 16 16z"></path>
</symbol>

<symbol id="icon-Star-6" viewBox="0 0 34 32">
<path fill="none" stroke="#ff6b08" style="stroke: var(--color1, #ff6b08)" stroke-linejoin="miter" stroke-linecap="butt" stroke-miterlimit="4" stroke-width="2" d="M17 3.236l3.090 9.511h10l-8.090 5.878 0.225 0.691 2.866 8.82-8.090-5.878-8.090 5.878 3.090-9.511-8.090-5.878h10l3.090-9.511z"></path>
</symbol>

<symbol id="icon-Vector-28" viewBox="0 0 32 32">
<path fill="#fff" style="fill: var(--color3, #fff)" d="M30.4 14.4h-12.8v-12.8c0-0.883-0.717-1.6-1.6-1.6s-1.6 0.717-1.6 1.6v12.8h-12.8c-0.883 0-1.6 0.717-1.6 1.6s0.717 1.6 1.6 1.6h12.8v12.8c0 0.883 0.717 1.6 1.6 1.6s1.6-0.717 1.6-1.6v-12.8h12.8c0.883 0 1.6-0.717 1.6-1.6s-0.717-1.6-1.6-1.6z"></path>
</symbol>

<symbol id="icon-flag" viewBox="0 0 28 32">
<path fill="#a6abb9" style="fill: var(--color2, #a6abb9)" d="M13.854 3.765l0.753 3.765h9.864v11.294h-6.325l-0.753-3.765h-13.628v-11.294h10.089zM16.941 0h-16.941v32h3.765v-13.176h10.541l0.753 3.765h13.176v-18.824h-10.541l-0.753-3.765z"></path>
</symbol>

<symbol id="icon-Vector-27" viewBox="0 0 27 32">
<path fill="#ff6b08" style="fill: var(--color1, #ff6b08)" d="M22.907 22.883c-0.063-0.305-0.311-0.447-0.493-0.638-1.316-1.39-2.653-2.768-3.972-4.159-0.562-0.59-0.611-1.221-0.168-1.669s1.062-0.409 1.609 0.162c2.108 2.186 4.21 4.378 6.306 6.576 0.644 0.676 0.636 1.149-0.013 1.831-2.078 2.181-4.162 4.355-6.251 6.524-0.576 0.598-1.141 0.644-1.609 0.171s-0.398-1.085 0.158-1.671c1.303-1.373 2.618-2.734 3.922-4.104 0.183-0.192 0.424-0.34 0.499-0.644-0.206-0.211-0.461-0.111-0.687-0.111-6.87-0.007-13.743-0.011-20.619-0.011-1.303 0-1.579-0.296-1.579-1.654 0-7.27 0-14.543 0-21.817-0.016-0.254-0.009-0.51 0.022-0.763 0.111-0.563 0.453-0.915 1.015-0.905s0.893 0.365 0.997 0.929c0.025 0.227 0.031 0.457 0.016 0.685 0 6.866 0.010 13.731-0.012 20.589 0 0.648 0.177 0.799 0.774 0.796 6.456-0.021 12.912-0.012 19.368-0.017 0.249 0.012 0.505 0.101 0.718-0.101z"></path>
</symbol>

<symbol id="icon-back" viewBox="0 0 64 32">
<path fill="#ff6b08" style="fill: var(--color1, #ff6b08)" d="M0.733 17.827c0.001 0.001 0.001 0.002 0.002 0.002l13.063 13.419c0.979 1.005 2.562 1.002 3.536-0.009s0.97-2.644-0.008-3.65l-8.771-9.009h52.945c1.381 0 2.5-1.155 2.5-2.581s-1.119-2.581-2.5-2.581h-52.945l8.77-9.010c0.979-1.005 0.982-2.639 0.008-3.65s-2.557-1.014-3.536-0.009l-13.063 13.419c-0.001 0.001-0.001 0.002-0.002 0.002-0.979 1.009-0.976 2.648 0 3.653z"></path>
</symbol>

<symbol id="icon-icon-home" viewBox="0 0 38 32">
<path fill="#a6abb9" style="fill: var(--color2, #a6abb9)" d="M18.824 5.064l9.412 8.471v14.701h-3.765v-11.294h-11.294v11.294h-3.765v-14.701l9.412-8.471zM18.824 0l-18.824 16.941h5.647v15.059h11.294v-11.294h3.765v11.294h11.294v-15.059h5.647l-18.824-16.941z"></path>
</symbol>

<symbol id="icon-Group-4" viewBox="0 0 41 32">
<path fill="#a6abb9" style="fill: var(--color2, #a6abb9)" d="M37.647 0.941c-2.089-0.659-4.386-0.941-6.588-0.941-3.671 0-7.624 0.753-10.353 2.824-2.729-2.071-6.682-2.824-10.353-2.824s-7.624 0.753-10.353 2.824v27.576c0 0.471 0.471 0.941 0.941 0.941 0.188 0 0.282-0.094 0.471-0.094 2.541-1.224 6.212-2.071 8.941-2.071 3.671 0 7.624 0.753 10.353 2.824 2.541-1.6 7.153-2.824 10.353-2.824 3.106 0 6.306 0.565 8.941 1.976 0.188 0.094 0.282 0.094 0.471 0.094 0.471 0 0.941-0.471 0.941-0.941v-27.482c-1.129-0.847-2.353-1.412-3.765-1.882zM37.647 26.353c-2.071-0.659-4.329-0.941-6.588-0.941-3.2 0-7.812 1.224-10.353 2.824v-21.647c2.541-1.6 7.153-2.824 10.353-2.824 2.259 0 4.518 0.282 6.588 0.941v21.647z"></path>
<path fill="#a6abb9" style="fill: var(--color2, #a6abb9)" d="M31.059 11.294c1.656 0 3.256 0.169 4.706 0.489v-2.861c-1.487-0.282-3.087-0.452-4.706-0.452-3.2 0-6.099 0.546-8.471 1.562v3.125c2.127-1.205 5.082-1.864 8.471-1.864z"></path>
<path fill="#a6abb9" style="fill: var(--color2, #a6abb9)" d="M22.588 15.040v3.125c2.127-1.205 5.082-1.864 8.471-1.864 1.656 0 3.256 0.169 4.706 0.489v-2.861c-1.487-0.282-3.087-0.452-4.706-0.452-3.2 0-6.099 0.565-8.471 1.562z"></path>
<path fill="#a6abb9" style="fill: var(--color2, #a6abb9)" d="M31.059 18.504c-3.2 0-6.099 0.546-8.471 1.562v3.125c2.127-1.205 5.082-1.864 8.471-1.864 1.656 0 3.256 0.169 4.706 0.489v-2.861c-1.487-0.301-3.087-0.452-4.706-0.452z"></path>
</symbol>
</defs>
</svg>
